<mxfile host="app.diagrams.net" agent="Mozilla/5.0 (Macintosh; Intel Mac OS X 10_15_7) AppleWebKit/605.1.15 (KHTML, like Gecko) Version/18.3.1 Safari/605.1.15" version="26.1.3">
  <diagram name="Page-1" id="y-DSmI1Uy9q8DW4IoN5t">
    <mxGraphModel dx="1749" dy="1207" grid="0" gridSize="10" guides="1" tooltips="1" connect="1" arrows="1" fold="1" page="1" pageScale="1" pageWidth="850" pageHeight="1100" math="0" shadow="0">
      <root>
        <mxCell id="0" />
        <mxCell id="1" parent="0" />
        <mxCell id="w8unE261J-UhPTlXiy1h-25" value="" style="rounded=0;whiteSpace=wrap;html=1;dashed=1;dashPattern=8 8;strokeColor=#CC0000;" vertex="1" parent="1">
          <mxGeometry x="26" y="308" width="901" height="535" as="geometry" />
        </mxCell>
        <mxCell id="w8unE261J-UhPTlXiy1h-1" value="&lt;span style=&quot;font-size: medium;&quot;&gt;&lt;b&gt;Aplikacja jednostronicowa&lt;/b&gt;&lt;/span&gt;&lt;div&gt;&lt;span style=&quot;&quot;&gt;&lt;font style=&quot;font-size: 13px;&quot;&gt;[Container: Java,Spring]&lt;/font&gt;&lt;/span&gt;&lt;/div&gt;&lt;div&gt;&lt;span style=&quot;&quot;&gt;&lt;font style=&quot;font-size: 13px;&quot;&gt;&lt;br&gt;&lt;/font&gt;&lt;/span&gt;&lt;/div&gt;&lt;div&gt;&lt;span style=&quot;&quot;&gt;&lt;font style=&quot;font-size: 13px;&quot;&gt;Zapewnia całą funkcjonalność bankowości internetowej klientom&amp;nbsp;&lt;/font&gt;&lt;/span&gt;&lt;/div&gt;&lt;div&gt;&lt;span style=&quot;&quot;&gt;&lt;font style=&quot;font-size: 13px;&quot;&gt;za pośrednictwem ich przeglądarki internetowej&lt;/font&gt;&lt;/span&gt;&lt;span style=&quot;text-align: start;&quot;&gt;&lt;font style=&quot;font-size: 13px;&quot;&gt;&lt;br&gt;&lt;/font&gt;&lt;/span&gt;&lt;/div&gt;" style="rounded=1;whiteSpace=wrap;html=1;fillColor=#f8cecc;strokeColor=#CC0000;strokeWidth=9;" vertex="1" parent="1">
          <mxGeometry x="175" y="104.5" width="217" height="152" as="geometry" />
        </mxCell>
        <mxCell id="w8unE261J-UhPTlXiy1h-2" value="&lt;b&gt;&lt;span style=&quot;font-size: medium;&quot;&gt;Aplikacja mobilna&lt;/span&gt;&lt;br style=&quot;&quot; data-end=&quot;20&quot; data-start=&quot;17&quot;&gt;&lt;/b&gt;&lt;span style=&quot;&quot;&gt;&lt;font style=&quot;font-size: 13px;&quot;&gt;[Container: Kotlin]&amp;nbsp;&lt;/font&gt;&lt;/span&gt;&lt;div&gt;&lt;font style=&quot;font-size: 13px;&quot;&gt;&lt;br&gt;&lt;/font&gt;&lt;div&gt;&lt;span style=&quot;&quot;&gt;&lt;font style=&quot;font-size: 13px;&quot;&gt;Zapewnia ograniczony podzbiór&amp;nbsp;&lt;/font&gt;&lt;/span&gt;&lt;/div&gt;&lt;div&gt;&lt;span style=&quot;&quot;&gt;&lt;font style=&quot;font-size: 13px;&quot;&gt;funkcjonalności bankowości&amp;nbsp;&lt;/font&gt;&lt;/span&gt;&lt;/div&gt;&lt;div&gt;&lt;span style=&quot;&quot;&gt;&lt;font style=&quot;font-size: 13px;&quot;&gt;internetowej&amp;nbsp;&lt;/font&gt;&lt;/span&gt;&lt;span style=&quot;font-size: 13px;&quot;&gt;klientom&amp;nbsp;&lt;/span&gt;&lt;/div&gt;&lt;div&gt;&lt;span style=&quot;font-size: 13px;&quot;&gt;za pośrednictwem ich urządzenia mobilnego&lt;/span&gt;&lt;span style=&quot;font-size: 13px;&quot;&gt;.&lt;/span&gt;&lt;/div&gt;&lt;/div&gt;" style="rounded=1;whiteSpace=wrap;html=1;fillColor=#f8cecc;strokeColor=#CC0000;strokeWidth=8;align=center;" vertex="1" parent="1">
          <mxGeometry x="514" y="106" width="240" height="149" as="geometry" />
        </mxCell>
        <mxCell id="w8unE261J-UhPTlXiy1h-3" value="" style="rounded=1;whiteSpace=wrap;html=1;fillColor=#a20025;strokeColor=none;fontColor=#ffffff;" vertex="1" parent="1">
          <mxGeometry x="181" y="107.5" width="203" height="14" as="geometry" />
        </mxCell>
        <mxCell id="w8unE261J-UhPTlXiy1h-4" value="" style="ellipse;whiteSpace=wrap;html=1;aspect=fixed;" vertex="1" parent="1">
          <mxGeometry x="212" y="110" width="9" height="9" as="geometry" />
        </mxCell>
        <mxCell id="w8unE261J-UhPTlXiy1h-5" value="" style="ellipse;whiteSpace=wrap;html=1;aspect=fixed;" vertex="1" parent="1">
          <mxGeometry x="197" y="110" width="9" height="9" as="geometry" />
        </mxCell>
        <mxCell id="w8unE261J-UhPTlXiy1h-6" value="" style="ellipse;whiteSpace=wrap;html=1;aspect=fixed;" vertex="1" parent="1">
          <mxGeometry x="183" y="110" width="9" height="9" as="geometry" />
        </mxCell>
        <mxCell id="w8unE261J-UhPTlXiy1h-8" value="" style="rounded=1;whiteSpace=wrap;html=1;" vertex="1" parent="1">
          <mxGeometry x="227" y="110.5" width="146" height="8" as="geometry" />
        </mxCell>
        <mxCell id="w8unE261J-UhPTlXiy1h-10" value="" style="rounded=1;whiteSpace=wrap;html=1;strokeColor=#6F0000;fillColor=#a20025;fontColor=#ffffff;" vertex="1" parent="1">
          <mxGeometry x="514" y="111.5" width="13" height="137" as="geometry" />
        </mxCell>
        <mxCell id="w8unE261J-UhPTlXiy1h-11" value="" style="ellipse;whiteSpace=wrap;html=1;aspect=fixed;" vertex="1" parent="1">
          <mxGeometry x="512" y="170" width="15" height="15" as="geometry" />
        </mxCell>
        <mxCell id="w8unE261J-UhPTlXiy1h-13" value="" style="rounded=1;whiteSpace=wrap;html=1;strokeColor=#6F0000;fillColor=#a20025;fontColor=#ffffff;" vertex="1" parent="1">
          <mxGeometry x="738" y="111.5" width="13" height="137" as="geometry" />
        </mxCell>
        <mxCell id="w8unE261J-UhPTlXiy1h-15" value="" style="rounded=1;whiteSpace=wrap;html=1;" vertex="1" parent="1">
          <mxGeometry x="742" y="161" width="5" height="38" as="geometry" />
        </mxCell>
        <mxCell id="w8unE261J-UhPTlXiy1h-17" value="&lt;font&gt;&lt;strong style=&quot;text-align: start;&quot; data-is-only-node=&quot;&quot; data-end=&quot;23&quot; data-start=&quot;0&quot;&gt;&lt;font style=&quot;font-size: 19px;&quot;&gt;Kontroler logowania&lt;/font&gt;&lt;/strong&gt;&lt;br style=&quot;text-align: start;&quot; data-end=&quot;26&quot; data-start=&quot;23&quot;&gt;&lt;span style=&quot;font-size: 13px; text-align: start;&quot; data-end=&quot;69&quot; data-start=&quot;26&quot;&gt;[Container: Spring MVC Rest Controller]&lt;/span&gt;&lt;/font&gt;&lt;div&gt;&lt;font&gt;&lt;font size=&quot;2&quot;&gt;&lt;br style=&quot;text-align: start;&quot; data-end=&quot;72&quot; data-start=&quot;69&quot;&gt;&lt;/font&gt;&lt;span style=&quot;font-size: 13px; text-align: start;&quot;&gt;Pozwala użytkownikom zalogować się do systemu ZnanyFryzjer.&lt;/span&gt;&lt;/font&gt;&lt;/div&gt;" style="rounded=0;whiteSpace=wrap;html=1;fillColor=#e51400;strokeColor=#B20000;fontColor=#ffffff;" vertex="1" parent="1">
          <mxGeometry x="20" y="393" width="248" height="138" as="geometry" />
        </mxCell>
        <mxCell id="w8unE261J-UhPTlXiy1h-18" value="&lt;font style=&quot;color: rgb(255, 255, 255);&quot;&gt;&lt;strong style=&quot;text-align: start; caret-color: rgb(0, 0, 0);&quot; data-is-only-node=&quot;&quot; data-end=&quot;31&quot; data-start=&quot;0&quot;&gt;&lt;font style=&quot;font-size: 19px;&quot;&gt;Kontroler resetowania hasła&lt;/font&gt;&lt;/strong&gt;&lt;br style=&quot;text-align: start; caret-color: rgb(0, 0, 0);&quot; data-end=&quot;34&quot; data-start=&quot;31&quot;&gt;&lt;span style=&quot;text-align: start; caret-color: rgb(0, 0, 0);&quot; data-end=&quot;77&quot; data-start=&quot;34&quot;&gt;[&lt;font style=&quot;font-size: 13px;&quot;&gt;Container: Spring MVC Rest Controller]&lt;/font&gt;&lt;/span&gt;&lt;/font&gt;&lt;div&gt;&lt;font style=&quot;color: rgb(255, 255, 255); font-size: 13px;&quot;&gt;&lt;b&gt;&lt;br style=&quot;text-align: start; caret-color: rgb(0, 0, 0);&quot; data-end=&quot;80&quot; data-start=&quot;77&quot;&gt;&lt;/b&gt;&lt;span style=&quot;text-align: start; caret-color: rgb(0, 0, 0);&quot;&gt;Pozwala użytkownikom zresetować&amp;nbsp;&lt;/span&gt;&lt;/font&gt;&lt;div&gt;&lt;font style=&quot;color: rgb(255, 255, 255); font-size: 13px;&quot;&gt;&lt;span style=&quot;text-align: start; caret-color: rgb(0, 0, 0);&quot;&gt;hasło za pomocą jednorazowego linku.&lt;/span&gt;&lt;/font&gt;&lt;/div&gt;&lt;/div&gt;" style="rounded=0;whiteSpace=wrap;html=1;fillColor=#e51400;fontColor=#ffffff;strokeColor=#B20000;" vertex="1" parent="1">
          <mxGeometry x="340" y="393" width="285" height="138" as="geometry" />
        </mxCell>
        <mxCell id="w8unE261J-UhPTlXiy1h-19" value="&lt;span style=&quot;color: rgb(255, 255, 255);&quot;&gt;&lt;font style=&quot;font-size: 19px;&quot;&gt;&lt;strong style=&quot;text-align: start; caret-color: rgb(0, 0, 0);&quot; data-is-only-node=&quot;&quot; data-end=&quot;31&quot; data-start=&quot;0&quot;&gt;Kontroler podsumowania kont&lt;/strong&gt;&lt;br style=&quot;text-align: start; caret-color: rgb(0, 0, 0);&quot; data-end=&quot;34&quot; data-start=&quot;31&quot;&gt;&lt;/font&gt;&lt;span style=&quot;text-align: start; caret-color: rgb(0, 0, 0);&quot; data-end=&quot;77&quot; data-start=&quot;34&quot;&gt;&lt;font style=&quot;font-size: 13px;&quot;&gt;[Container: Spring MVC Rest Controller]&lt;/font&gt;&lt;/span&gt;&lt;/span&gt;&lt;div&gt;&lt;span style=&quot;color: rgb(255, 255, 255);&quot;&gt;&lt;font style=&quot;font-size: 13px;&quot;&gt;&lt;br style=&quot;text-align: start; caret-color: rgb(0, 0, 0);&quot; data-end=&quot;80&quot; data-start=&quot;77&quot;&gt;&lt;span style=&quot;text-align: start; caret-color: rgb(0, 0, 0);&quot;&gt;Zapewnia klientom podsumowanie ich kont bankowych.&lt;/span&gt;&lt;/font&gt;&lt;/span&gt;&lt;/div&gt;" style="rounded=0;whiteSpace=wrap;html=1;fillColor=#e51400;fontColor=#ffffff;strokeColor=#B20000;" vertex="1" parent="1">
          <mxGeometry x="667" y="393" width="269" height="138" as="geometry" />
        </mxCell>
        <mxCell id="w8unE261J-UhPTlXiy1h-20" value="&lt;span style=&quot;color: rgb(255, 255, 255);&quot;&gt;&lt;strong style=&quot;text-align: start; caret-color: rgb(0, 0, 0);&quot; data-is-only-node=&quot;&quot; data-end=&quot;26&quot; data-start=&quot;0&quot;&gt;&lt;font style=&quot;font-size: 19px;&quot;&gt;Komponent zabezpieczeń&lt;/font&gt;&lt;/strong&gt;&lt;br style=&quot;text-align: start; caret-color: rgb(0, 0, 0);&quot; data-end=&quot;29&quot; data-start=&quot;26&quot;&gt;&lt;span style=&quot;text-align: start; caret-color: rgb(0, 0, 0);&quot; data-end=&quot;57&quot; data-start=&quot;29&quot;&gt;&lt;font style=&quot;font-size: 13px;&quot;&gt;[Container: Spring Bean]&lt;/font&gt;&lt;/span&gt;&lt;/span&gt;&lt;div&gt;&lt;span style=&quot;color: rgb(255, 255, 255);&quot;&gt;&lt;font style=&quot;font-size: 13px;&quot;&gt;&lt;br style=&quot;text-align: start; caret-color: rgb(0, 0, 0);&quot; data-end=&quot;60&quot; data-start=&quot;57&quot;&gt;&lt;span style=&quot;text-align: start; caret-color: rgb(0, 0, 0);&quot;&gt;Zapewnia funkcjonalność związaną z logowaniem, zmianą haseł itp.&lt;/span&gt;&lt;/font&gt;&lt;/span&gt;&lt;/div&gt;" style="rounded=0;whiteSpace=wrap;html=1;fillColor=#e51400;fontColor=#ffffff;strokeColor=#B20000;" vertex="1" parent="1">
          <mxGeometry x="16" y="643" width="252" height="138" as="geometry" />
        </mxCell>
        <mxCell id="w8unE261J-UhPTlXiy1h-21" value="&lt;div&gt;&lt;b&gt;&lt;font style=&quot;font-size: 19px;&quot;&gt;Komponent e-mail &lt;/font&gt;&lt;/b&gt;&amp;nbsp;&lt;/div&gt;&lt;div&gt;&lt;font style=&quot;font-size: 13px;&quot;&gt;[Container: Spring Bean]&lt;/font&gt;&lt;/div&gt;&lt;div&gt;&lt;font style=&quot;font-size: 13px;&quot;&gt;&lt;br&gt;&lt;/font&gt;&lt;/div&gt;&lt;div&gt;&lt;font style=&quot;font-size: 13px;&quot;&gt;Wysyła e-maile do użytkowników.&lt;/font&gt;&lt;/div&gt;" style="rounded=0;whiteSpace=wrap;html=1;fillColor=#e51400;fontColor=#ffffff;strokeColor=#B20000;" vertex="1" parent="1">
          <mxGeometry x="386" y="641" width="267" height="138" as="geometry" />
        </mxCell>
        <mxCell id="w8unE261J-UhPTlXiy1h-26" value="&lt;font style=&quot;font-size: 22px;&quot;&gt;&lt;b style=&quot;color: rgb(255, 255, 255);&quot;&gt;Amazon S3&lt;/b&gt;&lt;/font&gt;&lt;div&gt;&lt;font style=&quot;font-size: 13px; color: rgb(255, 255, 255);&quot;&gt;[Software system]&lt;/font&gt;&lt;/div&gt;&lt;div&gt;&lt;font style=&quot;font-size: 13px; color: rgb(255, 255, 255);&quot;&gt;&lt;br&gt;&lt;/font&gt;&lt;/div&gt;&lt;div&gt;&lt;font&gt;&lt;span style=&quot;text-align: start; color: rgb(255, 255, 255);&quot;&gt;&lt;font style=&quot;font-size: 13px;&quot;&gt;Zewnętrzny system przechowywania plików, np. zdjęć użytkowników, dokumentacji lub innych zasobów związanych z aplikacją.&lt;/font&gt;&lt;/span&gt;&lt;br&gt;&lt;/font&gt;&lt;/div&gt;" style="rounded=0;whiteSpace=wrap;html=1;fillColor=#999999;" vertex="1" parent="1">
          <mxGeometry x="702" y="999" width="205" height="149" as="geometry" />
        </mxCell>
        <mxCell id="w8unE261J-UhPTlXiy1h-27" value="&lt;font style=&quot;font-size: 23px;&quot;&gt;&lt;b&gt;Baza Danych&lt;/b&gt;&lt;/font&gt;&lt;div&gt;&lt;font style=&quot;font-size: 13px;&quot;&gt;[Container: PostgreSQL]&lt;/font&gt;&lt;/div&gt;&lt;div&gt;&lt;font style=&quot;font-size: 13px;&quot;&gt;&lt;br&gt;&lt;/font&gt;&lt;/div&gt;&lt;div&gt;&lt;font&gt;&lt;span style=&quot;text-align: start;&quot;&gt;&lt;font style=&quot;font-size: 13px;&quot;&gt;Przechowuje wszystkie dane użytkowników, rezerwacji, usług itp&lt;/font&gt;&lt;/span&gt;&lt;br&gt;&lt;/font&gt;&lt;/div&gt;" style="shape=cylinder3;whiteSpace=wrap;html=1;boundedLbl=1;backgroundOutline=1;size=15;fillColor=#a20025;fontColor=#ffffff;strokeColor=#6F0000;" vertex="1" parent="1">
          <mxGeometry x="17.5" y="998" width="249" height="153" as="geometry" />
        </mxCell>
        <mxCell id="w8unE261J-UhPTlXiy1h-28" value="&lt;font style=&quot;font-size: 22px;&quot;&gt;&lt;b&gt;E-mail System&lt;/b&gt;&lt;/font&gt;&lt;div&gt;&lt;font style=&quot;font-size: 13px;&quot;&gt;[Software System]&lt;/font&gt;&lt;/div&gt;&lt;div&gt;&lt;font style=&quot;font-size: 13px;&quot;&gt;&lt;br&gt;&lt;/font&gt;&lt;/div&gt;&lt;div&gt;&lt;font&gt;&lt;font style=&quot;font-size: 13px;&quot;&gt;Wewnętrzny system e-mail Microsoft Exchange&lt;/font&gt;&lt;font style=&quot;font-size: 19px;&quot;&gt;.&lt;/font&gt;&lt;br&gt;&lt;/font&gt;&lt;/div&gt;" style="rounded=0;whiteSpace=wrap;html=1;fillColor=#999999;fontColor=#ffffff;strokeColor=#B20000;" vertex="1" parent="1">
          <mxGeometry x="361.5" y="998" width="230" height="151" as="geometry" />
        </mxCell>
        <mxCell id="w8unE261J-UhPTlXiy1h-29" value="&lt;font style=&quot;font-size: 13px;&quot;&gt;Robię API zapytania do&lt;/font&gt;&lt;div&gt;&lt;font style=&quot;font-size: 13px;&quot;&gt;[HTTP/HTTPS]&lt;/font&gt;&lt;/div&gt;" style="endArrow=open;endSize=12;dashed=1;html=1;rounded=0;entryX=0.5;entryY=0;entryDx=0;entryDy=0;exitX=0.5;exitY=1;exitDx=0;exitDy=0;" edge="1" parent="1" source="w8unE261J-UhPTlXiy1h-19" target="w8unE261J-UhPTlXiy1h-26">
          <mxGeometry x="0.0011" width="160" relative="1" as="geometry">
            <mxPoint x="820" y="842" as="sourcePoint" />
            <mxPoint x="1243" y="856" as="targetPoint" />
            <mxPoint as="offset" />
          </mxGeometry>
        </mxCell>
        <mxCell id="w8unE261J-UhPTlXiy1h-31" value="&lt;font style=&quot;font-size: 13px;&quot;&gt;Robię API zapytania do&lt;/font&gt;&lt;div&gt;&lt;font style=&quot;font-size: 13px;&quot;&gt;[JSON/HTTPS]&lt;/font&gt;&lt;/div&gt;" style="endArrow=open;endSize=12;dashed=1;html=1;rounded=0;entryX=0.5;entryY=0;entryDx=0;entryDy=0;" edge="1" parent="1" target="w8unE261J-UhPTlXiy1h-19">
          <mxGeometry x="-0.0047" width="160" relative="1" as="geometry">
            <mxPoint x="742" y="256.5" as="sourcePoint" />
            <mxPoint x="876" y="488.5" as="targetPoint" />
            <mxPoint as="offset" />
          </mxGeometry>
        </mxCell>
        <mxCell id="w8unE261J-UhPTlXiy1h-32" value="&lt;font style=&quot;font-size: 13px;&quot;&gt;Robię API zapytania do&lt;/font&gt;&lt;div&gt;&lt;font style=&quot;font-size: 13px;&quot;&gt;[JSON/HTTPS]&lt;/font&gt;&lt;/div&gt;" style="endArrow=open;endSize=12;dashed=1;html=1;rounded=0;entryX=1;entryY=0;entryDx=0;entryDy=0;" edge="1" parent="1" target="w8unE261J-UhPTlXiy1h-17">
          <mxGeometry x="-0.0047" width="160" relative="1" as="geometry">
            <mxPoint x="514" y="248.5" as="sourcePoint" />
            <mxPoint x="574" y="385" as="targetPoint" />
            <mxPoint as="offset" />
          </mxGeometry>
        </mxCell>
        <mxCell id="w8unE261J-UhPTlXiy1h-33" value="&lt;font style=&quot;font-size: 12px;&quot;&gt;Robię API zapytania do&lt;/font&gt;&lt;div&gt;&lt;font style=&quot;font-size: 12px;&quot;&gt;[JSON/HTTPS]&lt;/font&gt;&lt;/div&gt;" style="endArrow=open;endSize=12;dashed=1;html=1;rounded=0;entryX=0.64;entryY=0.017;entryDx=0;entryDy=0;entryPerimeter=0;" edge="1" parent="1" target="w8unE261J-UhPTlXiy1h-18">
          <mxGeometry x="-0.0038" width="160" relative="1" as="geometry">
            <mxPoint x="742" y="256.5" as="sourcePoint" />
            <mxPoint x="496" y="401" as="targetPoint" />
            <mxPoint as="offset" />
          </mxGeometry>
        </mxCell>
        <mxCell id="w8unE261J-UhPTlXiy1h-34" value="&lt;font style=&quot;font-size: 13px;&quot;&gt;Robię API zapytania do&lt;/font&gt;&lt;div&gt;&lt;font style=&quot;font-size: 13px;&quot;&gt;[JSON/HTTPS]&lt;/font&gt;&lt;/div&gt;" style="endArrow=open;endSize=12;dashed=1;html=1;rounded=0;entryX=0.25;entryY=0;entryDx=0;entryDy=0;" edge="1" parent="1" target="w8unE261J-UhPTlXiy1h-17">
          <mxGeometry x="-0.0047" width="160" relative="1" as="geometry">
            <mxPoint x="258" y="261" as="sourcePoint" />
            <mxPoint x="74" y="371" as="targetPoint" />
            <mxPoint as="offset" />
          </mxGeometry>
        </mxCell>
        <mxCell id="w8unE261J-UhPTlXiy1h-35" value="&lt;font style=&quot;font-size: 13px;&quot;&gt;Robię API zapytania do&lt;/font&gt;&lt;div&gt;&lt;font style=&quot;font-size: 13px;&quot;&gt;[JSON/HTTPS]&lt;/font&gt;&lt;/div&gt;" style="endArrow=open;endSize=12;dashed=1;html=1;rounded=0;entryX=0.5;entryY=0;entryDx=0;entryDy=0;" edge="1" parent="1">
          <mxGeometry x="-0.0047" width="160" relative="1" as="geometry">
            <mxPoint x="361" y="253" as="sourcePoint" />
            <mxPoint x="421" y="389.5" as="targetPoint" />
            <mxPoint as="offset" />
          </mxGeometry>
        </mxCell>
        <mxCell id="w8unE261J-UhPTlXiy1h-36" value="&lt;font style=&quot;font-size: 12px;&quot;&gt;Robię API zapytania do&lt;/font&gt;&lt;div&gt;&lt;font style=&quot;font-size: 12px;&quot;&gt;[JSON/HTTPS]&lt;/font&gt;&lt;/div&gt;" style="endArrow=open;endSize=12;dashed=1;html=1;rounded=0;entryX=0;entryY=0;entryDx=0;entryDy=0;" edge="1" parent="1" target="w8unE261J-UhPTlXiy1h-19">
          <mxGeometry x="-0.0062" width="160" relative="1" as="geometry">
            <mxPoint x="397" y="209" as="sourcePoint" />
            <mxPoint x="457" y="345.5" as="targetPoint" />
            <mxPoint as="offset" />
          </mxGeometry>
        </mxCell>
        <mxCell id="w8unE261J-UhPTlXiy1h-37" value="&lt;font style=&quot;font-size: 13px;&quot;&gt;Uses&lt;/font&gt;" style="endArrow=open;endSize=12;dashed=1;html=1;rounded=0;entryX=0.445;entryY=0.03;entryDx=0;entryDy=0;entryPerimeter=0;exitX=0.451;exitY=0.989;exitDx=0;exitDy=0;exitPerimeter=0;" edge="1" parent="1" source="w8unE261J-UhPTlXiy1h-17" target="w8unE261J-UhPTlXiy1h-20">
          <mxGeometry width="160" relative="1" as="geometry">
            <mxPoint x="130" y="541" as="sourcePoint" />
            <mxPoint x="290" y="541" as="targetPoint" />
          </mxGeometry>
        </mxCell>
        <mxCell id="w8unE261J-UhPTlXiy1h-38" value="&lt;font style=&quot;font-size: 13px;&quot;&gt;Uses&lt;/font&gt;" style="endArrow=open;endSize=12;dashed=1;html=1;rounded=0;entryX=0.37;entryY=0.036;entryDx=0;entryDy=0;entryPerimeter=0;exitX=0.5;exitY=1;exitDx=0;exitDy=0;" edge="1" parent="1" source="w8unE261J-UhPTlXiy1h-18" target="w8unE261J-UhPTlXiy1h-21">
          <mxGeometry width="160" relative="1" as="geometry">
            <mxPoint x="518" y="525" as="sourcePoint" />
            <mxPoint x="514" y="643" as="targetPoint" />
          </mxGeometry>
        </mxCell>
        <mxCell id="w8unE261J-UhPTlXiy1h-39" value="&lt;font style=&quot;font-size: 13px;&quot;&gt;Uses&lt;/font&gt;" style="endArrow=open;endSize=12;dashed=1;html=1;rounded=0;entryX=1;entryY=0;entryDx=0;entryDy=0;exitX=0.5;exitY=1;exitDx=0;exitDy=0;" edge="1" parent="1" target="w8unE261J-UhPTlXiy1h-20">
          <mxGeometry width="160" relative="1" as="geometry">
            <mxPoint x="340" y="528" as="sourcePoint" />
            <mxPoint x="342" y="643" as="targetPoint" />
          </mxGeometry>
        </mxCell>
        <mxCell id="w8unE261J-UhPTlXiy1h-40" value="&lt;font style=&quot;font-size: 13px;&quot;&gt;Pobiera informacje z i&lt;/font&gt;&lt;div&gt;&lt;font style=&quot;font-size: 13px;&quot;&gt;&amp;nbsp;zapisuje do&lt;/font&gt;&lt;/div&gt;&lt;div&gt;&lt;font style=&quot;font-size: 13px;&quot;&gt;[SQL/TCP]&lt;/font&gt;&lt;/div&gt;" style="endArrow=open;endSize=12;dashed=1;html=1;rounded=0;entryX=0.5;entryY=0;entryDx=0;entryDy=0;entryPerimeter=0;exitX=0.5;exitY=1;exitDx=0;exitDy=0;" edge="1" parent="1" source="w8unE261J-UhPTlXiy1h-20" target="w8unE261J-UhPTlXiy1h-27">
          <mxGeometry x="0.0002" width="160" relative="1" as="geometry">
            <mxPoint x="629" y="825" as="sourcePoint" />
            <mxPoint x="221" y="815" as="targetPoint" />
            <mxPoint as="offset" />
          </mxGeometry>
        </mxCell>
        <mxCell id="w8unE261J-UhPTlXiy1h-41" value="&lt;font style=&quot;font-size: 13px;&quot;&gt;Wysyla e-mail&amp;nbsp;&lt;/font&gt;&lt;div&gt;&lt;font style=&quot;font-size: 13px;&quot;&gt;korzystając z&amp;nbsp;&lt;/font&gt;&lt;/div&gt;" style="endArrow=open;endSize=12;dashed=1;html=1;rounded=0;entryX=0.661;entryY=0.006;entryDx=0;entryDy=0;entryPerimeter=0;" edge="1" parent="1" target="w8unE261J-UhPTlXiy1h-28">
          <mxGeometry x="-0.0037" width="160" relative="1" as="geometry">
            <mxPoint x="514" y="779" as="sourcePoint" />
            <mxPoint x="849" y="540" as="targetPoint" />
            <mxPoint as="offset" />
          </mxGeometry>
        </mxCell>
        <mxCell id="w8unE261J-UhPTlXiy1h-42" value="&lt;div&gt;&lt;span style=&quot;color: rgb(204, 0, 0);&quot;&gt;API Aplikacji&lt;/span&gt;&lt;/div&gt;&lt;div&gt;&lt;span style=&quot;color: rgb(204, 0, 0);&quot;&gt;(Container)&lt;/span&gt;&lt;/div&gt;" style="rounded=0;whiteSpace=wrap;html=1;fillColor=none;strokeColor=none;" vertex="1" parent="1">
          <mxGeometry x="26" y="814" width="94" height="29" as="geometry" />
        </mxCell>
      </root>
    </mxGraphModel>
  </diagram>
</mxfile>
